<?xml version="1.0" standalone="no"?>
<!DOCTYPE svg PUBLIC "-//W3C//DTD SVG 20010904//EN"
 "http://www.w3.org/TR/2001/REC-SVG-20010904/DTD/svg10.dtd">
<svg version="1.0" xmlns="http://www.w3.org/2000/svg"
 width="360.000000pt" height="360.000000pt" viewBox="0 0 360.000000 360.000000"
 preserveAspectRatio="xMidYMid meet">
<metadata>
Created by potrace 1.11, written by Peter Selinger 2001-2013
</metadata>
<g transform="translate(0.000000,360.000000) scale(0.100000,-0.100000)"
fill="#000000" stroke="none">
<path d="M1290 3256 c-148 -54 -291 -130 -410 -221 l-95 -71 -164 0 c-89 1
-167 -2 -173 -5 -5 -3 -10 -100 -11 -230 l-2 -224 -42 -92 c-58 -125 -101
-284 -119 -433 -7 -61 -7 -303 0 -337 2 -11 8 -43 11 -70 19 -128 69 -300 121
-409 33 -70 34 -75 33 -200 0 -71 0 -171 0 -221 l1 -93 173 0 172 0 60 -49
c132 -106 314 -205 475 -256 47 -15 90 -28 95 -29 6 -1 11 58 12 154 1 85 2
161 2 168 1 9 84 12 379 12 l379 0 0 -165 c0 -91 2 -167 4 -169 7 -6 198 61
273 97 92 44 224 126 302 188 l61 49 174 2 174 3 0 220 0 220 42 97 c63 144
102 290 120 440 15 134 4 364 -23 478 -3 14 -8 38 -11 54 -8 51 -62 205 -95
274 l-32 67 -2 220 c-1 121 -2 225 -3 230 -1 6 -65 10 -173 9 l-173 0 -70 54
c-91 71 -161 115 -258 164 -86 44 -297 122 -305 113 -3 -3 -5 -78 -5 -168 l0
-163 -379 0 c-336 0 -378 1 -379 15 -1 9 -1 82 -1 163 -1 101 -4 148 -12 151
-6 3 -63 -14 -126 -37z"/>
</g>
</svg>
